<?xml version="1.0" encoding="UTF-8" standalone="no"?>
<!-- Created with Inkscape (http://www.inkscape.org/) -->

<svg
   width="57.547539mm"
   height="57.62907mm"
   viewBox="0 0 57.547539 57.62907"
   version="1.1"
   id="svg5"
   inkscape:version="1.2.2 (b0a8486541, 2022-12-01)"
   sodipodi:docname="drawing.svg"
   xmlns:inkscape="http://www.inkscape.org/namespaces/inkscape"
   xmlns:sodipodi="http://sodipodi.sourceforge.net/DTD/sodipodi-0.dtd"
   xmlns="http://www.w3.org/2000/svg"
   xmlns:svg="http://www.w3.org/2000/svg">
  <sodipodi:namedview
     id="namedview7"
     pagecolor="#ffffff"
     bordercolor="#000000"
     borderopacity="0.25"
     inkscape:showpageshadow="2"
     inkscape:pageopacity="0.0"
     inkscape:pagecheckerboard="0"
     inkscape:deskcolor="#d1d1d1"
     inkscape:document-units="mm"
     showgrid="false"
     inkscape:zoom="0.52099718"
     inkscape:cx="339.73313"
     inkscape:cy="237.04543"
     inkscape:window-width="1366"
     inkscape:window-height="696"
     inkscape:window-x="0"
     inkscape:window-y="0"
     inkscape:window-maximized="1"
     inkscape:current-layer="layer1" />
  <defs
     id="defs2" />
  <g
     inkscape:label="Layer 1"
     inkscape:groupmode="layer"
     id="layer1"
     transform="translate(-125.90467,-20.854768)">
    <path
       id="path2054"
       style="font-weight:bold;font-size:73.541px;stroke-width:0"
       d="m 156.04297,20.865234 c -7.08331,0.08446 -14.22272,2.411124 -19.6736,7.002558 -6.08393,5.066602 -9.6626,12.749921 -10.3136,20.579055 -0.4505,5.4099 0.0448,11.087138 2.32483,16.134826 2.19452,4.937333 6.40162,8.887971 11.34987,11.109733 3.02221,1.362128 6.09298,2.115746 9.37264,2.50222 5.68471,0.62119 11.46976,0.260982 17.03908,-1.233549 1.60191,-0.427639 3.10418,-0.908917 4.66445,-1.542108 0,-1.936198 0,-3.872396 0,-5.808594 -6.25331,2.099892 -12.8759,3.471486 -19.49999,2.990038 -4.96071,-0.340553 -10.05903,-2.057861 -13.49357,-5.795804 -3.5679,-3.793148 -4.91438,-9.127941 -5.01171,-14.216844 -0.1988,-6.403771 1.37555,-13.101929 5.5355,-18.10987 3.4475,-4.190709 8.55655,-6.864517 13.9139,-7.578665 5.09731,-0.735276 10.57119,-0.397351 15.12939,2.200099 4.92997,2.670616 8.25894,7.86041 8.98371,13.382071 0.54608,4.067677 0.31757,8.274423 -0.83758,12.219706 -0.5864,1.790076 -1.58216,3.862319 -3.60104,4.305179 -1.69248,0.479127 -3.51871,-0.806051 -3.77832,-2.516227 -0.60242,-2.980823 -0.0968,-6.035875 -0.0338,-9.043756 0.18039,-3.693356 0.36079,-7.386712 0.54118,-11.080068 -2.64089,-0.821139 -5.50772,-1.232496 -8.2419,-1.596856 -3.37418,-0.35026 -6.79063,-0.423134 -10.07451,0.606622 -2.86676,0.896111 -5.66833,2.691352 -7.51597,5.067557 -2.20062,2.745706 -3.31107,6.305933 -3.37677,9.711271 -0.16653,4.0988 0.93865,8.51185 4.05155,11.365117 2.40665,2.244887 5.83396,3.077608 8.98832,3.063377 2.53998,0.06533 5.08943,-0.67502 7.12686,-2.210963 0.97523,-0.67313 1.84169,-1.495273 2.58148,-2.420187 0.53516,0.06023 1.31752,-0.25858 1.397,0.499447 1.1386,2.735386 4.18413,4.197296 7.04255,4.132575 2.78344,0.05837 5.60291,-0.953147 7.53864,-2.992161 3.08934,-3.168755 4.5891,-7.56718 5.0986,-11.891665 0.43864,-4.180482 0.1026,-8.372258 -1.20328,-12.379796 -1.9533,-5.894161 -6.31662,-10.963084 -11.9456,-13.624452 -4.34981,-2.145132 -9.25816,-2.943214 -14.0783,-2.829886 z m 0.6543,19.15625 c 1.56782,0.0073 3.12795,0.209926 4.67578,0.445313 -0.22831,3.37068 -0.2814,6.756976 -0.6409,10.116341 -0.34496,2.351736 -0.95342,4.810847 -2.50599,6.673065 -1.74555,1.894609 -4.65101,2.169382 -7.02489,1.54065 -2.12688,-0.573759 -3.75333,-2.432269 -4.17783,-4.57615 -0.66832,-3.217342 -0.38814,-6.730379 1.16797,-9.660156 1.35626,-2.44995 3.9213,-4.149804 6.7108,-4.426584 0.59589,-0.07687 1.19455,-0.106108 1.79506,-0.112479 z" />
  </g>
</svg>
