<?xml version="1.0" encoding="UTF-8" standalone="no"?>
<!-- Created with Inkscape (http://www.inkscape.org/) -->

<svg
   width="54.703125mm"
   height="38.595581mm"
   viewBox="0 0 54.703125 38.595581"
   version="1.1"
   id="svg5"
   xmlns="http://www.w3.org/2000/svg"
   xmlns:svg="http://www.w3.org/2000/svg">
  <defs
     id="defs2" />
  <g
     id="layer1"
     transform="translate(-132.12682,-46.357375)">
    <path
       id="rect1294-3"
       style="color:#000000;fill:#000000;-inkscape-stroke:none"
       d="m 138.17399,46.357377 c -3.29852,0 -6.04717,2.748652 -6.04717,6.047176 v 26.499675 c 0,3.298523 2.74865,6.048726 6.04717,6.048726 h 42.60929 c 3.29853,0 6.04666,-2.750203 6.04666,-6.048726 V 52.404553 c 0,-3.298524 -2.74813,-6.047176 -6.04666,-6.047176 z m -0.0532,5.993949 c 0.002,-0.0019 0.0141,0.0062 0.0532,0.0062 h 42.60929 c 0.0783,0 0.047,-0.0318 0.047,0.04651 v 0.146762 L 159.47864,62.3533 138.12697,52.550798 v -0.146762 c 0,-0.03916 -0.008,-0.05078 -0.006,-0.05271 z m 0.006,6.801653 21.35167,9.801985 21.35167,-9.801985 v 19.751249 c 0,0.07831 0.0313,0.04909 -0.047,0.04909 h -42.60929 c -0.0783,0 -0.047,0.02923 -0.047,-0.04909 z" />
  </g>
</svg>
