<?xml version="1.0" encoding="UTF-8" standalone="no"?>
<!-- Created with Inkscape (http://www.inkscape.org/) -->

<svg
   width="68.832764mm"
   height="68.857529mm"
   viewBox="0 0 68.832764 68.857529"
   version="1.1"
   id="svg5"
   inkscape:version="1.2.2 (b0a8486541, 2022-12-01)"
   sodipodi:docname="drawing.svg"
   xmlns:inkscape="http://www.inkscape.org/namespaces/inkscape"
   xmlns:sodipodi="http://sodipodi.sourceforge.net/DTD/sodipodi-0.dtd"
   xmlns="http://www.w3.org/2000/svg"
   xmlns:svg="http://www.w3.org/2000/svg">
  <sodipodi:namedview
     id="namedview7"
     pagecolor="#ffffff"
     bordercolor="#000000"
     borderopacity="0.25"
     inkscape:showpageshadow="2"
     inkscape:pageopacity="0.0"
     inkscape:pagecheckerboard="0"
     inkscape:deskcolor="#d1d1d1"
     inkscape:document-units="mm"
     showgrid="false"
     inkscape:zoom="0.7217489"
     inkscape:cx="1604.4361"
     inkscape:cy="1479.0462"
     inkscape:window-width="1366"
     inkscape:window-height="696"
     inkscape:window-x="0"
     inkscape:window-y="0"
     inkscape:window-maximized="1"
     inkscape:current-layer="layer1" />
  <defs
     id="defs2" />
  <g
     inkscape:label="Layer 1"
     inkscape:groupmode="layer"
     id="layer1"
     transform="translate(-437.34352,-244.31831)">
    <path
       id="path1348"
       style="fill:none;stroke:#ffffff;stroke-width:4;stroke-dasharray:none"
       d="m 450.14908,246.3183 c -5.98623,0 -10.80555,4.81931 -10.80555,10.80554 v 43.22165 c 0,5.98623 4.81932,10.80554 10.80555,10.80554 h 10.80554 V 300.34549 257.12384 246.3183 Z" />
    <rect
       style="fill:none;stroke:#ffffff;stroke-width:4;stroke-dasharray:none"
       id="rect1350"
       width="21.610952"
       height="64.832832"
       x="460.95447"
       y="246.31831" />
    <path
       id="path1352"
       style="fill:none;stroke:#ffffff;stroke-width:4;stroke-dasharray:none"
       d="m 493.37073,246.3183 c -0.23327,0 -0.464,0.01 -0.6935,0.0243 h -9.9689 v 9.02425 c -0.0928,0.57177 -0.14315,1.15823 -0.14315,1.757 v 43.22165 c 0,0.59891 0.0503,1.18563 0.14315,1.75752 v 9.07283 h 10.80502 v -0.0284 c 5.91964,-0.0762 10.66292,-4.86355 10.66292,-10.80193 v -43.22165 c 0,-5.98623 -4.81932,-10.80554 -10.80554,-10.80554 z" />
    <rect
       style="fill:#ffffff;stroke-width:0.167164"
       id="rect1354"
       width="12.929629"
       height="38.899704"
       x="454.48962"
       y="246.31831" />
    <rect
       style="fill:#ffffff;stroke-width:0.167164"
       id="rect1356"
       width="12.929629"
       height="38.899704"
       x="476.10056"
       y="246.31831" />
  </g>
</svg>
