<?xml version="1.0" encoding="UTF-8" standalone="no"?>
<!-- Created with Inkscape (http://www.inkscape.org/) -->

<svg
   width="25.169426mm"
   height="34.523224mm"
   viewBox="0 0 25.169426 34.523224"
   version="1.1"
   id="svg5"
   xml:space="preserve"
   xmlns="http://www.w3.org/2000/svg"
   xmlns:svg="http://www.w3.org/2000/svg"><defs
     id="defs2" /><g
     id="layer1"
     transform="translate(90.328577,-125.85434)"><path
       id="path366-6"
       style="fill:#ffffff;stroke:none;stroke-width:0.469;stroke-dasharray:none"
       d="m -72.879789,125.85433 -9.608199,13.86479 c -0.556399,0.802 -1.471525,1.28358 -2.447913,1.28674 l 0.0021,0.61857 c 0.21283,-8.9e-4 0.42476,-0.0205 0.630969,-0.0579 0.933691,-0.1693 1.773223,-0.70241 2.322856,-1.49551 l 7.386629,-10.65827 0.86093,0.59687 -12.320179,17.77617 c -1.317779,1.90236 -2.260263,4.00733 -2.801379,6.25698 l -0.937927,3.90623 0.268717,0.18603 -0.658874,0.9524 c -0.258613,0.37231 -0.165766,0.88511 0.207222,1.1436 0.186095,0.12897 0.408064,0.17083 0.61495,0.13332 0.206882,-0.0375 0.400204,-0.15445 0.529166,-0.34055 l 0.659392,-0.95136 0.269751,0.18707 3.327962,-2.25051 c 1.916457,-1.29652 3.556736,-2.91818 4.874638,-4.81986 l 14.159342,-20.43079 c 0.126631,-0.18358 0.174717,-0.40504 0.134876,-0.62477 -0.03972,-0.21906 -0.162179,-0.41001 -0.345199,-0.53744 l -0.188619,-0.1297 0.505396,-0.72916 c 0.233702,-0.33637 0.322144,-0.74374 0.24908,-1.1467 -0.07306,-0.40295 -0.298573,-0.75292 -0.63562,-0.9865 L -67.9059,126.1592 c -0.33637,-0.23371 -0.743746,-0.32214 -1.1467,-0.24908 -0.402955,0.0731 -0.753081,0.29869 -0.985986,0.63562 l -0.505395,0.72864 -0.187586,-0.12971 c -0.377902,-0.26248 -0.899323,-0.16773 -1.161686,0.21084 l -1.487248,2.14613 -0.860929,-0.59687 1.870687,-2.69854 z m 4.280359,0.66715 c 0.01058,0.002 0.02103,0.005 0.03152,0.007 -0.0105,-0.002 -0.02094,-0.005 -0.03152,-0.007 z m 0.249597,0.0899 c 0.0085,0.005 0.01695,0.009 0.02532,0.014 -0.0084,-0.005 -0.01685,-0.009 -0.02532,-0.014 z m -3.436483,1.67484 5.336625,3.699 -5.336625,-3.69849 z" /></g></svg>
