<?xml version="1.0" encoding="UTF-8" standalone="no"?>
<!-- Created with Inkscape (http://www.inkscape.org/) -->

<svg
   width="107.55843mm"
   height="96.204727mm"
   viewBox="0 0 107.55843 96.204727"
   version="1.1"
   id="svg5"
   inkscape:version="1.2.2 (b0a8486541, 2022-12-01)"
   sodipodi:docname="drawing.svg"
   xmlns:inkscape="http://www.inkscape.org/namespaces/inkscape"
   xmlns:sodipodi="http://sodipodi.sourceforge.net/DTD/sodipodi-0.dtd"
   xmlns="http://www.w3.org/2000/svg"
   xmlns:svg="http://www.w3.org/2000/svg">
  <sodipodi:namedview
     id="namedview7"
     pagecolor="#ffffff"
     bordercolor="#000000"
     borderopacity="0.25"
     inkscape:showpageshadow="2"
     inkscape:pageopacity="0.0"
     inkscape:pagecheckerboard="0"
     inkscape:deskcolor="#d1d1d1"
     inkscape:document-units="mm"
     showgrid="false"
     inkscape:zoom="0.7217489"
     inkscape:cx="1604.4361"
     inkscape:cy="1128.5088"
     inkscape:window-width="1366"
     inkscape:window-height="696"
     inkscape:window-x="0"
     inkscape:window-y="0"
     inkscape:window-maximized="1"
     inkscape:current-layer="layer1" />
  <defs
     id="defs2" />
  <g
     inkscape:label="Layer 1"
     inkscape:groupmode="layer"
     id="layer1"
     transform="translate(-21.676491,-93.674192)">
    <path
       id="path1057"
       style="color:#000000;fill:#000000;-inkscape-stroke:none"
       d="m 74.880859,93.685547 c -11.819824,0.101317 -23.23436,7.391243 -28.326099,18.055143 -4.404063,8.94572 -4.380107,19.9803 0.292707,28.81985 4.372561,8.51689 12.67671,14.95676 22.093943,16.82257 8.937308,1.86674 18.664095,-0.23615 25.904111,-5.83906 7.444629,-5.60181 12.336389,-14.53544 12.763919,-23.87098 0.52052,-9.04237 -2.93882,-18.26655 -9.439277,-24.60387 -6.096692,-6.057344 -14.671828,-9.623251 -23.289304,-9.383653 z m 0.603516,11.285153 c 8.031487,-0.0882 15.875143,4.93992 19.057381,12.33138 2.514079,5.63851 2.449158,12.39444 -0.375996,17.90909 -2.422249,4.91174 -6.848649,8.78204 -12.066151,10.46656 -5.806149,1.96717 -12.452029,1.20995 -17.648437,-2.04882 -3.660603,-2.26175 -6.709755,-5.76798 -8.304569,-9.83119 -2.612078,-6.22218 -1.920028,-13.69009 1.805824,-19.31887 3.233984,-5.1231 8.848266,-8.5778 14.839485,-9.33819 0.892081,-0.11868 1.792774,-0.16825 2.692463,-0.16996 z m -2.574219,53.78321 c -12.098903,0.33904 -24.364327,2.10837 -35.497925,7.05467 -5.393197,2.44034 -10.616853,5.92445 -13.687473,11.11799 -1.708587,2.97489 -2.235102,6.49033 -1.992336,9.87773 0,1.02487 0,2.04974 0,3.07461 35.822917,0 71.645833,0 107.468748,0 -0.0421,-3.87483 0.45267,-7.99211 -1.30116,-11.59694 -2.37006,-5.08302 -6.97877,-8.70559 -11.85866,-11.23361 -9.49428,-4.90035 -20.155956,-6.98893 -30.719588,-7.91368 -4.127164,-0.33712 -8.271354,-0.44056 -12.411606,-0.38077 z m 2.572266,11.26757 c 9.840531,0.0488 19.737745,1.21474 29.128908,4.36329 3.03892,1.09376 6.04699,2.36396 8.72656,4.18945 -25.260415,0.0121 -50.520831,0.016 -75.781249,0.0117 3.506263,-2.34313 7.511193,-3.81281 11.513671,-5.06446 8.500788,-2.51729 17.516383,-3.42375 26.41211,-3.5 z" />
    <path
       style="color:#000000;fill:#800000;stroke-width:6.00001;-inkscape-stroke:none"
       d="m 27.378948,184.23217 c 96.189472,0 96.189472,0 96.189472,0"
       id="path1260" />
  </g>
</svg>
